# Blender 4.0.2
# www.blender.org
mtllib s99a.mtl
o walls
v 100.000008 30.628353 -99.999992
v -99.999992 30.628353 -100.000008
v -99.999992 0.628353 -100.000008
v 100.000008 0.628353 -100.000000
v 99.999992 30.628345 100.000008
v 14.999995 30.628345 100.000000
v 14.999995 0.628345 100.000000
v 99.999992 0.628345 100.000000
v -15.000005 30.628345 100.000000
v -100.000008 30.628345 99.999992
v -100.000008 0.628345 99.999992
v -15.000005 0.628345 100.000000
v -99.999992 30.628353 -100.000008
v -100.000008 30.628345 99.999992
v -100.000008 0.628345 99.999992
v -99.999992 0.628353 -100.000008
v 100.000008 30.628353 -99.999992
v 99.999992 30.628345 100.000008
v 99.999992 0.628345 100.000000
v 100.000008 0.628353 -100.000000
vn -0.0000 -0.0000 1.0000
vn 1.0000 -0.0000 -0.0000
vt 0.000000 0.000000
vt 1.000000 0.000000
vt 1.000000 1.000000
vt 0.000000 1.000000
s 0
usemtl s99a_wall
f 1/1/1 2/2/1 3/3/1 4/4/1
f 5/1/1 6/2/1 7/3/1 8/4/1
f 9/1/1 10/2/1 11/3/1 12/4/1
f 13/1/2 14/2/2 15/3/2 16/4/2
f 17/1/2 18/2/2 19/3/2 20/4/2
o floor
v 99.999992 0.000004 100.000008
v 49.999996 0.000004 100.000000
v -0.000004 0.000004 100.000000
v -50.000004 0.000004 100.000000
v -100.000008 0.000004 99.999992
v 100.000000 0.000002 50.000004
v 49.999996 0.000002 50.000004
v -0.000002 0.000002 50.000000
v -50.000004 0.000002 49.999996
v -100.000000 0.000002 49.999996
v 100.000000 0.000000 0.000004
v 50.000000 0.000000 0.000002
v 0.000000 0.000000 0.000000
v -50.000000 0.000000 -0.000002
v -100.000000 0.000000 -0.000004
v 100.000000 -0.000002 -49.999996
v 50.000004 -0.000002 -49.999996
v 0.000002 -0.000002 -50.000000
v -49.999996 -0.000002 -50.000004
v -100.000000 -0.000002 -50.000004
v 100.000008 -0.000004 -99.999992
v 50.000004 -0.000004 -100.000000
v 0.000004 -0.000004 -100.000000
v -49.999996 -0.000004 -100.000000
v -99.999992 -0.000004 -100.000008
vn -0.0000 -1.0000 -0.0000
vt 0.000000 0.000000
vt 1.000000 0.000000
vt 1.000000 1.000000
vt 0.000000 1.000000
s 0
usemtl s99a_ground
f 39/5/3 40/6/3 45/7/3 44/8/3
f 38/5/3 39/6/3 44/7/3 43/8/3
f 37/5/3 38/6/3 43/7/3 42/8/3
f 36/5/3 37/6/3 42/7/3 41/8/3
f 34/5/3 35/6/3 40/7/3 39/8/3
f 33/5/3 34/6/3 39/7/3 38/8/3
f 32/5/3 33/6/3 38/7/3 37/8/3
f 31/5/3 32/6/3 37/7/3 36/8/3
f 29/5/3 30/6/3 35/7/3 34/8/3
f 28/5/3 29/6/3 34/7/3 33/8/3
f 27/5/3 28/6/3 33/7/3 32/8/3
f 26/5/3 27/6/3 32/7/3 31/8/3
f 24/5/3 25/6/3 30/7/3 29/8/3
f 23/5/3 24/6/3 29/7/3 28/8/3
f 22/5/3 23/6/3 28/7/3 27/8/3
f 21/5/3 22/6/3 27/7/3 26/8/3
o room
v 60.000004 20.241880 -59.999996
v 20.000002 20.241880 -60.000000
v 20.000002 0.241880 -60.000000
v 60.000004 0.241880 -60.000000
v 20.000002 20.241880 -60.000000
v 20.000000 20.241879 -20.000000
v 20.000000 0.241879 -20.000000
v 20.000002 0.241880 -60.000000
v 60.000004 20.241880 -59.999996
v 60.000000 20.241879 -19.999998
v 60.000000 0.241879 -19.999998
v 60.000004 0.241880 -60.000000
v 60.000000 20.241879 -19.999998
v 46.000000 20.241879 -19.999998
v 46.000000 0.241879 -19.999998
v 60.000000 0.241879 -19.999998
v 60.000004 20.379135 -59.999996
v 20.000002 20.379135 -60.000000
v 20.000000 20.379133 -20.000000
v 60.000000 20.379133 -19.999998
v 34.000000 20.241879 -19.999998
v 20.000000 20.241879 -20.000000
v 20.000000 0.241879 -20.000000
v 34.000000 0.241879 -20.000000
vn -0.0000 -0.0000 1.0000
vn 1.0000 -0.0000 -0.0000
vn -0.0000 1.0000 -0.0000
vt 0.000000 0.000000
vt 1.000000 0.000000
vt 1.000000 1.000000
vt 0.000000 1.000000
s 0
usemtl s99a_wall
f 46/9/4 47/10/4 48/11/4 49/12/4
f 50/9/5 51/10/5 52/11/5 53/12/5
f 54/9/5 55/10/5 56/11/5 57/12/5
f 58/9/4 59/10/4 60/11/4 61/12/4
f 62/9/6 63/10/6 64/11/6 65/12/6
f 66/9/4 67/10/4 68/11/4 69/12/4
