# Blender 4.0.2
# www.blender.org
mtllib s99b.mtl
o Cube
v 10.000000 0.100000 -10.000000
v 10.000000 -0.100000 -10.000000
v 10.000000 0.100000 10.000000
v 10.000000 -0.100000 10.000000
v -10.000000 0.100000 -10.000000
v -10.000000 -0.100000 -10.000000
v -10.000000 0.100000 10.000000
v -10.000000 -0.100000 10.000000
v -10.000000 -0.100000 -8.181818
v -10.000000 -0.100000 -6.363636
v -10.000000 -0.100000 -4.545455
v -10.000000 -0.100000 -2.727273
v -10.000000 -0.100000 -0.909091
v -10.000000 -0.100000 0.909091
v -10.000000 -0.100000 2.727273
v -10.000000 -0.100000 4.545455
v -10.000000 -0.100000 6.363636
v -10.000000 -0.100000 8.181818
v 8.181818 -0.100000 -10.000000
v 6.363636 -0.100000 -10.000000
v 4.545455 -0.100000 -10.000000
v 2.727273 -0.100000 -10.000000
v 0.909091 -0.100000 -10.000000
v -0.909091 -0.100000 -10.000000
v -2.727273 -0.100000 -10.000000
v -4.545455 -0.100000 -10.000000
v -6.363636 -0.100000 -10.000000
v -8.181818 -0.100000 -10.000000
v -8.181818 -0.100000 10.000000
v -6.363636 -0.100000 10.000000
v -4.545455 -0.100000 10.000000
v -2.727273 -0.100000 10.000000
v -0.909091 -0.100000 10.000000
v 0.909091 -0.100000 10.000000
v 2.727273 -0.100000 10.000000
v 4.545455 -0.100000 10.000000
v 6.363636 -0.100000 10.000000
v 8.181818 -0.100000 10.000000
v 10.000000 -0.100000 8.181818
v 10.000000 -0.100000 6.363636
v 10.000000 -0.100000 4.545455
v 10.000000 -0.100000 2.727273
v 10.000000 -0.100000 0.909091
v 10.000000 -0.100000 -0.909091
v 10.000000 -0.100000 -2.727273
v 10.000000 -0.100000 -4.545455
v 10.000000 -0.100000 -6.363636
v 10.000000 -0.100000 -8.181818
v -8.181818 -0.100000 -8.181818
v -8.181818 -0.100000 -6.363636
v -8.181818 -0.100000 -4.545455
v -8.181818 -0.100000 -2.727273
v -8.181818 -0.100000 -0.909091
v -8.181818 -0.100000 0.909091
v -8.181818 -0.100000 2.727273
v -8.181818 -0.100000 4.545455
v -8.181818 -0.100000 6.363636
v -8.181818 -0.100000 8.181818
v -6.363636 -0.100000 -8.181818
v -6.363636 -0.100000 -6.363636
v -6.363636 -0.100000 -4.545455
v -6.363636 -0.100000 -2.727273
v -6.363636 -0.100000 -0.909091
v -6.363636 -0.100000 0.909091
v -6.363636 -0.100000 2.727273
v -6.363636 -0.100000 4.545455
v -6.363636 -0.100000 6.363636
v -6.363636 -0.100000 8.181818
v -4.545455 -0.100000 -8.181818
v -4.545455 -0.100000 -6.363636
v -4.545455 -0.100000 -4.545455
v -4.545455 -0.100000 -2.727273
v -4.545455 -0.100000 -0.909091
v -4.545455 -0.100000 0.909091
v -4.545455 -0.100000 2.727273
v -4.545455 -0.100000 4.545455
v -4.545455 -0.100000 6.363636
v -4.545455 -0.100000 8.181818
v -2.727273 -0.100000 -8.181818
v -2.727273 -0.100000 -6.363636
v -2.727273 -0.100000 -4.545455
v -2.727273 -0.100000 -2.727273
v -2.727273 -0.100000 -0.909091
v -2.727273 -0.100000 0.909091
v -2.727273 -0.100000 2.727273
v -2.727273 -0.100000 4.545455
v -2.727273 -0.100000 6.363636
v -2.727273 -0.100000 8.181818
v -0.909091 -0.100000 -8.181818
v -0.909091 -0.100000 -6.363636
v -0.909091 -0.100000 -4.545455
v -0.909091 -0.100000 -2.727273
v -0.909091 -0.100000 -0.909091
v -0.909091 -0.100000 0.909091
v -0.909091 -0.100000 2.727273
v -0.909091 -0.100000 4.545455
v -0.909091 -0.100000 6.363636
v -0.909091 -0.100000 8.181818
v 0.909091 -0.100000 -8.181818
v 0.909091 -0.100000 -6.363636
v 0.909091 -0.100000 -4.545455
v 0.909091 -0.100000 -2.727273
v 0.909091 -0.100000 -0.909091
v 0.909091 -0.100000 0.909091
v 0.909091 -0.100000 2.727273
v 0.909091 -0.100000 4.545455
v 0.909091 -0.100000 6.363636
v 0.909091 -0.100000 8.181818
v 2.727273 -0.100000 -8.181818
v 2.727273 -0.100000 -6.363636
v 2.727273 -0.100000 -4.545455
v 2.727273 -0.100000 -2.727273
v 2.727273 -0.100000 -0.909091
v 2.727273 -0.100000 0.909091
v 2.727273 -0.100000 2.727273
v 2.727273 -0.100000 4.545455
v 2.727273 -0.100000 6.363636
v 2.727273 -0.100000 8.181818
v 4.545455 -0.100000 -8.181818
v 4.545455 -0.100000 -6.363636
v 4.545455 -0.100000 -4.545455
v 4.545455 -0.100000 -2.727273
v 4.545455 -0.100000 -0.909091
v 4.545455 -0.100000 0.909091
v 4.545455 -0.100000 2.727273
v 4.545455 -0.100000 4.545455
v 4.545455 -0.100000 6.363636
v 4.545455 -0.100000 8.181818
v 6.363636 -0.100000 -8.181818
v 6.363636 -0.100000 -6.363636
v 6.363636 -0.100000 -4.545455
v 6.363636 -0.100000 -2.727273
v 6.363636 -0.100000 -0.909091
v 6.363636 -0.100000 0.909091
v 6.363636 -0.100000 2.727273
v 6.363636 -0.100000 4.545455
v 6.363636 -0.100000 6.363636
v 6.363636 -0.100000 8.181818
v 8.181818 -0.100000 -8.181818
v 8.181818 -0.100000 -6.363636
v 8.181818 -0.100000 -4.545455
v 8.181818 -0.100000 -2.727273
v 8.181818 -0.100000 -0.909091
v 8.181818 -0.100000 0.909091
v 8.181818 -0.100000 2.727273
v 8.181818 -0.100000 4.545455
v 8.181818 -0.100000 6.363636
v 8.181818 -0.100000 8.181818
vn -0.0000 1.0000 -0.0000
vn -0.0000 -0.0000 1.0000
vn -1.0000 -0.0000 -0.0000
vn -0.0000 -1.0000 -0.0000
vn 1.0000 -0.0000 -0.0000
vn -0.0000 -0.0000 -1.0000
vt 0.002818 0.002255
vt 0.999436 0.002255
vt 1.002792 1.002028
vt 0.005597 0.998604
vt 0.375000 0.750000
vt 0.625000 0.750000
vt 0.625000 1.000000
vt 0.375000 1.000000
vt 0.375000 0.977273
vt 0.375000 0.954545
vt 0.375000 0.931818
vt 0.375000 0.909091
vt 0.375000 0.886364
vt 0.375000 0.863636
vt 0.375000 0.840909
vt 0.375000 0.818182
vt 0.375000 0.795455
vt 0.375000 0.772727
vt 0.375000 0.000000
vt 0.625000 0.000000
vt 0.625000 0.250000
vt 0.375000 0.250000
vt 0.375000 0.227273
vt 0.375000 0.204545
vt 0.375000 0.181818
vt 0.375000 0.159091
vt 0.375000 0.136364
vt 0.375000 0.113636
vt 0.375000 0.090909
vt 0.375000 0.068182
vt 0.375000 0.045455
vt 0.375000 0.022727
vt 0.352273 0.727273
vt 0.375000 0.727273
vt 0.352273 0.750000
vt 0.375000 0.500000
vt 0.625000 0.500000
vt 0.375000 0.704545
vt 0.375000 0.681818
vt 0.375000 0.659091
vt 0.375000 0.636364
vt 0.375000 0.613636
vt 0.375000 0.590909
vt 0.375000 0.568182
vt 0.375000 0.545455
vt 0.375000 0.522727
vt 0.375000 0.477273
vt 0.375000 0.454545
vt 0.375000 0.431818
vt 0.375000 0.409091
vt 0.375000 0.386364
vt 0.375000 0.363636
vt 0.375000 0.340909
vt 0.375000 0.318182
vt 0.375000 0.295455
vt 0.375000 0.272727
vt 0.125000 0.727273
vt 0.147727 0.727273
vt 0.147727 0.750000
vt 0.125000 0.750000
vt 0.170455 0.727273
vt 0.170455 0.750000
vt 0.193182 0.727273
vt 0.193182 0.750000
vt 0.215909 0.727273
vt 0.215909 0.750000
vt 0.238636 0.727273
vt 0.238636 0.750000
vt 0.261364 0.727273
vt 0.261364 0.750000
vt 0.284091 0.727273
vt 0.284091 0.750000
vt 0.306818 0.727273
vt 0.306818 0.750000
vt 0.329545 0.727273
vt 0.329545 0.750000
vt 0.125000 0.500000
vt 0.147727 0.500000
vt 0.147727 0.522727
vt 0.125000 0.522727
vt 0.147727 0.545455
vt 0.125000 0.545455
vt 0.147727 0.568182
vt 0.125000 0.568182
vt 0.147727 0.590909
vt 0.125000 0.590909
vt 0.147727 0.613636
vt 0.125000 0.613636
vt 0.147727 0.636364
vt 0.125000 0.636364
vt 0.147727 0.659091
vt 0.125000 0.659091
vt 0.147727 0.681818
vt 0.125000 0.681818
vt 0.147727 0.704545
vt 0.125000 0.704545
vt 0.170455 0.500000
vt 0.170455 0.522727
vt 0.170455 0.545455
vt 0.170455 0.568182
vt 0.170455 0.590909
vt 0.170455 0.613636
vt 0.170455 0.636364
vt 0.170455 0.659091
vt 0.170455 0.681818
vt 0.170455 0.704545
vt 0.193182 0.500000
vt 0.193182 0.522727
vt 0.193182 0.545455
vt 0.193182 0.568182
vt 0.193182 0.590909
vt 0.193182 0.613636
vt 0.193182 0.636364
vt 0.193182 0.659091
vt 0.193182 0.681818
vt 0.193182 0.704545
vt 0.215909 0.500000
vt 0.215909 0.522727
vt 0.215909 0.545455
vt 0.215909 0.568182
vt 0.215909 0.590909
vt 0.215909 0.613636
vt 0.215909 0.636364
vt 0.215909 0.659091
vt 0.215909 0.681818
vt 0.215909 0.704545
vt 0.238636 0.500000
vt 0.238636 0.522727
vt 0.238636 0.545455
vt 0.238636 0.568182
vt 0.238636 0.590909
vt 0.238636 0.613636
vt 0.238636 0.636364
vt 0.238636 0.659091
vt 0.238636 0.681818
vt 0.238636 0.704545
vt 0.261364 0.500000
vt 0.261364 0.522727
vt 0.261364 0.545455
vt 0.261364 0.568182
vt 0.261364 0.590909
vt 0.261364 0.613636
vt 0.261364 0.636364
vt 0.261364 0.659091
vt 0.261364 0.681818
vt 0.261364 0.704545
vt 0.284091 0.500000
vt 0.284091 0.522727
vt 0.284091 0.545455
vt 0.284091 0.568182
vt 0.284091 0.590909
vt 0.284091 0.613636
vt 0.284091 0.636364
vt 0.284091 0.659091
vt 0.284091 0.681818
vt 0.284091 0.704545
vt 0.306818 0.500000
vt 0.306818 0.522727
vt 0.306818 0.545455
vt 0.306818 0.568182
vt 0.306818 0.590909
vt 0.306818 0.613636
vt 0.306818 0.636364
vt 0.306818 0.659091
vt 0.306818 0.681818
vt 0.306818 0.704545
vt 0.329545 0.500000
vt 0.329545 0.522727
vt 0.329545 0.545455
vt 0.329545 0.568182
vt 0.329545 0.590909
vt 0.329545 0.613636
vt 0.329545 0.636364
vt 0.329545 0.659091
vt 0.329545 0.681818
vt 0.329545 0.704545
vt 0.352273 0.500000
vt 0.352273 0.522727
vt 0.352273 0.545455
vt 0.352273 0.568182
vt 0.352273 0.590909
vt 0.352273 0.613636
vt 0.352273 0.636364
vt 0.352273 0.659091
vt 0.352273 0.681818
vt 0.352273 0.704545
s 0
usemtl Material
f 1/1/1 5/2/1 7/3/1 3/4/1
f 4/5/2 3/6/2 7/7/2 8/8/2 29/9/2 30/10/2 31/11/2 32/12/2 33/13/2 34/14/2 35/15/2 36/16/2 37/17/2 38/18/2
f 8/19/3 7/20/3 5/21/3 6/22/3 9/23/3 10/24/3 11/25/3 12/26/3 13/27/3 14/28/3 15/29/3 16/30/3 17/31/3 18/32/3
f 148/33/4 39/34/4 4/5/4 38/35/4
f 2/36/5 1/37/5 3/6/5 4/5/5 39/34/5 40/38/5 41/39/5 42/40/5 43/41/5 44/42/5 45/43/5 46/44/5 47/45/5 48/46/5
f 6/22/6 5/21/6 1/37/6 2/36/6 19/47/6 20/48/6 21/49/6 22/50/6 23/51/6 24/52/6 25/53/6 26/54/6 27/55/6 28/56/6
f 18/57/4 58/58/4 29/59/4 8/60/4
f 58/58/4 68/61/4 30/62/4 29/59/4
f 68/61/4 78/63/4 31/64/4 30/62/4
f 78/63/4 88/65/4 32/66/4 31/64/4
f 88/65/4 98/67/4 33/68/4 32/66/4
f 98/67/4 108/69/4 34/70/4 33/68/4
f 108/69/4 118/71/4 35/72/4 34/70/4
f 118/71/4 128/73/4 36/74/4 35/72/4
f 128/73/4 138/75/4 37/76/4 36/74/4
f 138/75/4 148/33/4 38/35/4 37/76/4
f 6/77/4 28/78/4 49/79/4 9/80/4
f 9/80/4 49/79/4 50/81/4 10/82/4
f 10/82/4 50/81/4 51/83/4 11/84/4
f 11/84/4 51/83/4 52/85/4 12/86/4
f 12/86/4 52/85/4 53/87/4 13/88/4
f 13/88/4 53/87/4 54/89/4 14/90/4
f 14/90/4 54/89/4 55/91/4 15/92/4
f 15/92/4 55/91/4 56/93/4 16/94/4
f 16/94/4 56/93/4 57/95/4 17/96/4
f 17/96/4 57/95/4 58/58/4 18/57/4
f 28/78/4 27/97/4 59/98/4 49/79/4
f 49/79/4 59/98/4 60/99/4 50/81/4
f 50/81/4 60/99/4 61/100/4 51/83/4
f 51/83/4 61/100/4 62/101/4 52/85/4
f 52/85/4 62/101/4 63/102/4 53/87/4
f 53/87/4 63/102/4 64/103/4 54/89/4
f 54/89/4 64/103/4 65/104/4 55/91/4
f 55/91/4 65/104/4 66/105/4 56/93/4
f 56/93/4 66/105/4 67/106/4 57/95/4
f 57/95/4 67/106/4 68/61/4 58/58/4
f 27/97/4 26/107/4 69/108/4 59/98/4
f 59/98/4 69/108/4 70/109/4 60/99/4
f 60/99/4 70/109/4 71/110/4 61/100/4
f 61/100/4 71/110/4 72/111/4 62/101/4
f 62/101/4 72/111/4 73/112/4 63/102/4
f 63/102/4 73/112/4 74/113/4 64/103/4
f 64/103/4 74/113/4 75/114/4 65/104/4
f 65/104/4 75/114/4 76/115/4 66/105/4
f 66/105/4 76/115/4 77/116/4 67/106/4
f 67/106/4 77/116/4 78/63/4 68/61/4
f 26/107/4 25/117/4 79/118/4 69/108/4
f 69/108/4 79/118/4 80/119/4 70/109/4
f 70/109/4 80/119/4 81/120/4 71/110/4
f 71/110/4 81/120/4 82/121/4 72/111/4
f 72/111/4 82/121/4 83/122/4 73/112/4
f 73/112/4 83/122/4 84/123/4 74/113/4
f 74/113/4 84/123/4 85/124/4 75/114/4
f 75/114/4 85/124/4 86/125/4 76/115/4
f 76/115/4 86/125/4 87/126/4 77/116/4
f 77/116/4 87/126/4 88/65/4 78/63/4
f 25/117/4 24/127/4 89/128/4 79/118/4
f 79/118/4 89/128/4 90/129/4 80/119/4
f 80/119/4 90/129/4 91/130/4 81/120/4
f 81/120/4 91/130/4 92/131/4 82/121/4
f 82/121/4 92/131/4 93/132/4 83/122/4
f 83/122/4 93/132/4 94/133/4 84/123/4
f 84/123/4 94/133/4 95/134/4 85/124/4
f 85/124/4 95/134/4 96/135/4 86/125/4
f 86/125/4 96/135/4 97/136/4 87/126/4
f 87/126/4 97/136/4 98/67/4 88/65/4
f 24/127/4 23/137/4 99/138/4 89/128/4
f 89/128/4 99/138/4 100/139/4 90/129/4
f 90/129/4 100/139/4 101/140/4 91/130/4
f 91/130/4 101/140/4 102/141/4 92/131/4
f 92/131/4 102/141/4 103/142/4 93/132/4
f 93/132/4 103/142/4 104/143/4 94/133/4
f 94/133/4 104/143/4 105/144/4 95/134/4
f 95/134/4 105/144/4 106/145/4 96/135/4
f 96/135/4 106/145/4 107/146/4 97/136/4
f 97/136/4 107/146/4 108/69/4 98/67/4
f 23/137/4 22/147/4 109/148/4 99/138/4
f 99/138/4 109/148/4 110/149/4 100/139/4
f 100/139/4 110/149/4 111/150/4 101/140/4
f 101/140/4 111/150/4 112/151/4 102/141/4
f 102/141/4 112/151/4 113/152/4 103/142/4
f 103/142/4 113/152/4 114/153/4 104/143/4
f 104/143/4 114/153/4 115/154/4 105/144/4
f 105/144/4 115/154/4 116/155/4 106/145/4
f 106/145/4 116/155/4 117/156/4 107/146/4
f 107/146/4 117/156/4 118/71/4 108/69/4
f 22/147/4 21/157/4 119/158/4 109/148/4
f 109/148/4 119/158/4 120/159/4 110/149/4
f 110/149/4 120/159/4 121/160/4 111/150/4
f 111/150/4 121/160/4 122/161/4 112/151/4
f 112/151/4 122/161/4 123/162/4 113/152/4
f 113/152/4 123/162/4 124/163/4 114/153/4
f 114/153/4 124/163/4 125/164/4 115/154/4
f 115/154/4 125/164/4 126/165/4 116/155/4
f 116/155/4 126/165/4 127/166/4 117/156/4
f 117/156/4 127/166/4 128/73/4 118/71/4
f 21/157/4 20/167/4 129/168/4 119/158/4
f 119/158/4 129/168/4 130/169/4 120/159/4
f 120/159/4 130/169/4 131/170/4 121/160/4
f 121/160/4 131/170/4 132/171/4 122/161/4
f 122/161/4 132/171/4 133/172/4 123/162/4
f 123/162/4 133/172/4 134/173/4 124/163/4
f 124/163/4 134/173/4 135/174/4 125/164/4
f 125/164/4 135/174/4 136/175/4 126/165/4
f 126/165/4 136/175/4 137/176/4 127/166/4
f 127/166/4 137/176/4 138/75/4 128/73/4
f 20/167/4 19/177/4 139/178/4 129/168/4
f 129/168/4 139/178/4 140/179/4 130/169/4
f 130/169/4 140/179/4 141/180/4 131/170/4
f 131/170/4 141/180/4 142/181/4 132/171/4
f 132/171/4 142/181/4 143/182/4 133/172/4
f 133/172/4 143/182/4 144/183/4 134/173/4
f 134/173/4 144/183/4 145/184/4 135/174/4
f 135/174/4 145/184/4 146/185/4 136/175/4
f 136/175/4 146/185/4 147/186/4 137/176/4
f 137/176/4 147/186/4 148/33/4 138/75/4
f 19/177/4 2/36/4 48/46/4 139/178/4
f 139/178/4 48/46/4 47/45/4 140/179/4
f 140/179/4 47/45/4 46/44/4 141/180/4
f 141/180/4 46/44/4 45/43/4 142/181/4
f 142/181/4 45/43/4 44/42/4 143/182/4
f 143/182/4 44/42/4 43/41/4 144/183/4
f 144/183/4 43/41/4 42/40/4 145/184/4
f 145/184/4 42/40/4 41/39/4 146/185/4
f 146/185/4 41/39/4 40/38/4 147/186/4
f 147/186/4 40/38/4 39/34/4 148/33/4
